<?xml version="1.0" encoding="UTF-8"?>
<!DOCTYPE svg PUBLIC "-//W3C//DTD SVG 1.1//EN" "http://www.w3.org/Graphics/SVG/1.1/DTD/svg11.dtd">
<svg version="1.1" xmlns="http://www.w3.org/2000/svg" xmlns:xlink="http://www.w3.org/1999/xlink" x="0" y="0" width="220" height="220" viewBox="0, 0, 220, 220">
  <g id="Layer_1" transform="translate(-430, -69)">
    <g>
      <path d="M516.167,85.833 L564.833,85.833 L564.833,133.833 L516.167,133.833 L516.167,85.833 z" fill="#FFC300"/>
      <path d="M516.167,85.833 L564.833,85.833 L564.833,133.833 L516.167,133.833 L516.167,85.833 z" fill-opacity="0" stroke="#000000" stroke-width="1"/>
    </g>
    <g>
      <path d="M445.167,85.833 L493.833,85.833 L493.833,133.833 L445.167,133.833 L445.167,85.833 z" fill="#FFC300"/>
      <path d="M445.167,85.833 L493.833,85.833 L493.833,133.833 L445.167,133.833 L445.167,85.833 z" fill-opacity="0" stroke="#000000" stroke-width="1"/>
    </g>
    <g>
      <path d="M445.167,229.5 L493.833,229.5 L493.833,277.5 L445.167,277.5 L445.167,229.5 z" fill="#DFDFDF"/>
      <path d="M445.167,229.5 L493.833,229.5 L493.833,277.5 L445.167,277.5 L445.167,229.5 z" fill-opacity="0" stroke="#000000" stroke-width="1"/>
    </g>
    <g>
      <path d="M516.167,229.5 L564.833,229.5 L564.833,277.5 L516.167,277.5 L516.167,229.5 z" fill="#DFDFDF"/>
      <path d="M516.167,229.5 L564.833,229.5 L564.833,277.5 L516.167,277.5 L516.167,229.5 z" fill-opacity="0" stroke="#000000" stroke-width="1"/>
    </g>
    <g>
      <path d="M590.5,229.5 L639.167,229.5 L639.167,277.5 L590.5,277.5 L590.5,229.5 z" fill="#DFDFDF"/>
      <path d="M590.5,229.5 L639.167,229.5 L639.167,277.5 L590.5,277.5 L590.5,229.5 z" fill-opacity="0" stroke="#000000" stroke-width="1"/>
    </g>
    <g>
      <path d="M590.5,157.5 L639.167,157.5 L639.167,205.5 L590.5,205.5 L590.5,157.5 z" fill="#DFDFDF"/>
      <path d="M590.5,157.5 L639.167,157.5 L639.167,205.5 L590.5,205.5 L590.5,157.5 z" fill-opacity="0" stroke="#000000" stroke-width="1"/>
    </g>
    <g>
      <path d="M516.167,157.5 L564.833,157.5 L564.833,205.5 L516.167,205.5 L516.167,157.5 z" fill="#DFDFDF"/>
      <path d="M516.167,157.5 L564.833,157.5 L564.833,205.5 L516.167,205.5 L516.167,157.5 z" fill-opacity="0" stroke="#000000" stroke-width="1"/>
    </g>
    <g>
      <path d="M445.167,157.5 L493.833,157.5 L493.833,205.5 L445.167,205.5 L445.167,157.5 z" fill="#DFDFDF"/>
      <path d="M445.167,157.5 L493.833,157.5 L493.833,205.5 L445.167,205.5 L445.167,157.5 z" fill-opacity="0" stroke="#000000" stroke-width="1"/>
    </g>
    <g>
      <path d="M590.5,85.833 L639.167,85.833 L639.167,133.833 L590.5,133.833 L590.5,85.833 z" fill="#FFC300"/>
      <path d="M590.5,85.833 L639.167,85.833 L639.167,133.833 L590.5,133.833 L590.5,85.833 z" fill-opacity="0" stroke="#000000" stroke-width="1"/>
    </g>
    <path d="M431.5,70.5 L649.5,70.5 L649.5,288.5 L431.5,288.5 L431.5,70.5 z" fill-opacity="0" stroke="#000000" stroke-width="1"/>
  </g>
</svg>
